<svg width="1415" height="272" viewBox="0 0 1415 272" fill="none" xmlns="http://www.w3.org/2000/svg">
<g filter="url(#filter0_d_1394_41879)">
<g clip-path="url(#clip0_1394_41879)">
<path d="M138.228 58.6138H164.497L148.567 130.184C145.503 143.794 143.403 152.12 142.244 155.232C146.357 174.166 152.375 183.614 160.225 183.614C169.502 183.614 174.312 177.181 174.629 164.314H180.012C179.695 176.29 177.534 185.994 173.469 193.428C169.404 200.814 164.082 204.5 157.49 204.5C152.058 204.5 147.993 202.291 145.308 197.859C142.671 193.428 139.766 184.358 136.714 170.699C126.008 193.221 108.491 204.512 84.2358 204.512C67.6221 204.512 54.4873 198.03 44.6729 185.103C34.9072 172.164 30 153.658 30 129.549C30 105.867 35.3223 87.459 46.0278 74.2754C56.7456 61.0918 69.6118 54.5 84.6387 54.5C95.2344 54.5 103.938 58.2476 110.75 65.7915C117.549 73.2866 123.567 85.5669 128.792 102.547L138.228 58.6138ZM124.617 119.209C119.819 102.706 114.387 89.7783 108.43 80.4399C102.473 71.1626 95.3442 66.5117 87.019 66.5117C68.1958 66.5117 58.7964 88.5576 58.7964 132.601C58.7964 174.422 67.8174 195.308 85.7983 195.308C101.411 195.308 112.959 176.851 120.454 139.925L124.617 119.209Z" fill="#00008B"/>
</g>
<path d="M309.752 107.811C309.752 114.832 308.14 121.279 304.917 127.149C301.694 132.905 296.744 137.567 290.068 141.135C283.391 144.704 275.103 146.488 265.204 146.488H246.901V190H217.375V68.788H265.204C274.873 68.788 283.046 70.4571 289.722 73.7953C296.399 77.1335 301.406 81.738 304.744 87.6087C308.083 93.4793 309.752 100.213 309.752 107.811ZM262.959 123.005C268.6 123.005 272.801 121.682 275.564 119.034C278.326 116.386 279.708 112.645 279.708 107.811C279.708 102.976 278.326 99.2349 275.564 96.5873C272.801 93.9398 268.6 92.616 262.959 92.616H246.901V123.005H262.959ZM354.649 109.71C358.103 104.415 362.419 100.271 367.599 97.278C372.779 94.17 378.535 92.616 384.866 92.616V123.869H376.751C369.383 123.869 363.858 125.48 360.175 128.703C356.491 131.811 354.649 137.337 354.649 145.279V190H325.123V93.652H354.649V109.71ZM442.836 191.381C433.397 191.381 424.879 189.367 417.281 185.338C409.799 181.309 403.871 175.554 399.497 168.071C395.238 160.589 393.108 151.841 393.108 141.826C393.108 131.926 395.295 123.236 399.669 115.753C404.044 108.156 410.029 102.343 417.627 98.314C425.224 94.2851 433.742 92.2707 443.181 92.2707C452.62 92.2707 461.139 94.2851 468.736 98.314C476.333 102.343 482.319 108.156 486.693 115.753C491.068 123.236 493.255 131.926 493.255 141.826C493.255 151.726 491.01 160.474 486.521 168.071C482.146 175.554 476.103 181.309 468.391 185.338C460.793 189.367 452.275 191.381 442.836 191.381ZM442.836 165.827C448.476 165.827 453.254 163.755 457.167 159.611C461.196 155.467 463.211 149.538 463.211 141.826C463.211 134.114 461.254 128.185 457.34 124.041C453.541 119.897 448.822 117.825 443.181 117.825C437.426 117.825 432.649 119.897 428.85 124.041C425.051 128.07 423.152 133.998 423.152 141.826C423.152 149.538 424.994 155.467 428.677 159.611C432.476 163.755 437.196 165.827 442.836 165.827ZM523.595 83.6373C518.415 83.6373 514.156 82.1409 510.818 79.148C507.595 76.04 505.983 72.2413 505.983 67.752C505.983 63.1475 507.595 59.3489 510.818 56.356C514.156 53.248 518.415 51.694 523.595 51.694C528.66 51.694 532.804 53.248 536.027 56.356C539.366 59.3489 541.035 63.1475 541.035 67.752C541.035 72.2413 539.366 76.04 536.027 79.148C532.804 82.1409 528.66 83.6373 523.595 83.6373ZM538.445 202.432C538.445 214.288 535.452 222.807 529.466 227.987C523.48 233.282 515.135 235.929 504.429 235.929H492.861V210.893H499.94C503.163 210.893 505.465 210.26 506.847 208.993C508.228 207.727 508.919 205.655 508.919 202.777V93.652H538.445V202.432ZM650.496 140.272C650.496 143.035 650.323 145.912 649.978 148.905H583.156C583.616 154.891 585.516 159.496 588.854 162.719C592.307 165.827 596.509 167.381 601.459 167.381C608.826 167.381 613.948 164.273 616.826 158.057H648.251C646.64 164.388 643.704 170.086 639.445 175.151C635.301 180.216 630.064 184.187 623.733 187.065C617.402 189.942 610.322 191.381 602.495 191.381C593.056 191.381 584.652 189.367 577.285 185.338C569.918 181.309 564.163 175.554 560.019 168.071C555.875 160.589 553.803 151.841 553.803 141.826C553.803 131.811 555.817 123.063 559.846 115.581C563.99 108.098 569.746 102.343 577.113 98.314C584.48 94.2851 592.94 92.2707 602.495 92.2707C611.819 92.2707 620.107 94.2275 627.359 98.1413C634.611 102.055 640.251 107.638 644.28 114.89C648.424 122.142 650.496 130.603 650.496 140.272ZM620.279 132.502C620.279 127.437 618.553 123.408 615.099 120.415C611.646 117.422 607.329 115.926 602.149 115.926C597.2 115.926 592.998 117.365 589.545 120.243C586.206 123.12 584.134 127.207 583.329 132.502H620.279ZM660.202 141.826C660.202 131.811 662.216 123.063 666.245 115.581C670.389 108.098 676.087 102.343 683.339 98.314C690.706 94.2851 699.109 92.2707 708.548 92.2707C720.635 92.2707 730.707 95.4362 738.765 101.767C746.938 108.098 752.291 117.02 754.823 128.531H723.398C720.75 121.164 715.628 117.48 708.03 117.48C702.62 117.48 698.304 119.61 695.08 123.869C691.857 128.013 690.246 133.998 690.246 141.826C690.246 149.654 691.857 155.697 695.08 159.956C698.304 164.1 702.62 166.172 708.03 166.172C715.628 166.172 720.75 162.488 723.398 155.121H754.823C752.291 166.402 746.938 175.266 738.765 181.712C730.592 188.158 720.52 191.381 708.548 191.381C699.109 191.381 690.706 189.367 683.339 185.338C676.087 181.309 670.389 175.554 666.245 168.071C662.216 160.589 660.202 151.841 660.202 141.826ZM824.316 164.963V190H809.294C798.589 190 790.243 187.41 784.257 182.23C778.272 176.935 775.279 168.359 775.279 156.503V118.171H763.537V93.652H775.279V70.1693H804.805V93.652H824.143V118.171H804.805V156.848C804.805 159.726 805.495 161.798 806.877 163.064C808.258 164.33 810.56 164.963 813.783 164.963H824.316ZM952.808 168.589H907.57L900.318 190H869.41L913.268 68.788H947.456L991.313 190H960.06L952.808 168.589ZM945.211 145.797L930.189 101.422L915.34 145.797H945.211ZM1034.19 62.2267V190H1004.66V62.2267H1034.19ZM1085.11 107.293C1087.99 102.803 1091.96 99.1773 1097.02 96.4147C1102.09 93.652 1108.02 92.2707 1114.81 92.2707C1122.75 92.2707 1129.95 94.2851 1136.39 98.314C1142.84 102.343 1147.9 108.098 1151.59 115.581C1155.39 123.063 1157.28 131.754 1157.28 141.653C1157.28 151.553 1155.39 160.301 1151.59 167.899C1147.9 175.381 1142.84 181.194 1136.39 185.338C1129.95 189.367 1122.75 191.381 1114.81 191.381C1108.13 191.381 1102.2 190 1097.02 187.237C1091.96 184.475 1087.99 180.906 1085.11 176.532V235.929H1055.58V93.652H1085.11V107.293ZM1127.24 141.653C1127.24 134.286 1125.17 128.531 1121.02 124.387C1117 120.128 1111.99 117.998 1106 117.998C1100.13 117.998 1095.12 120.128 1090.98 124.387C1086.95 128.646 1084.94 134.459 1084.94 141.826C1084.94 149.193 1086.95 155.006 1090.98 159.265C1095.12 163.524 1100.13 165.654 1106 165.654C1111.87 165.654 1116.88 163.524 1121.02 159.265C1125.17 154.891 1127.24 149.02 1127.24 141.653ZM1232 92.616C1243.05 92.616 1251.91 96.2996 1258.59 103.667C1265.27 110.919 1268.6 120.933 1268.6 133.711V190H1239.25V137.682C1239.25 131.236 1237.58 126.228 1234.24 122.66C1230.91 119.092 1226.42 117.307 1220.78 117.307C1215.14 117.307 1210.65 119.092 1207.31 122.66C1203.97 126.228 1202.3 131.236 1202.3 137.682V190H1172.77V62.2267H1202.3V106.602C1205.29 102.343 1209.38 98.9471 1214.56 96.4147C1219.74 93.8822 1225.55 92.616 1232 92.616ZM1283.25 141.653C1283.25 131.754 1285.09 123.063 1288.78 115.581C1292.58 108.098 1297.7 102.343 1304.14 98.314C1310.59 94.2851 1317.79 92.2707 1325.73 92.2707C1332.52 92.2707 1338.45 93.652 1343.51 96.4147C1348.69 99.1773 1352.66 102.803 1355.43 107.293V93.652H1384.95V190H1355.43V176.359C1352.55 180.849 1348.52 184.475 1343.34 187.237C1338.28 190 1332.35 191.381 1325.56 191.381C1317.73 191.381 1310.59 189.367 1304.14 185.338C1297.7 181.194 1292.58 175.381 1288.78 167.899C1285.09 160.301 1283.25 151.553 1283.25 141.653ZM1355.43 141.826C1355.43 134.459 1353.35 128.646 1349.21 124.387C1345.18 120.128 1340.23 117.998 1334.36 117.998C1328.49 117.998 1323.48 120.128 1319.34 124.387C1315.31 128.531 1313.3 134.286 1313.3 141.653C1313.3 149.02 1315.31 154.891 1319.34 159.265C1323.48 163.524 1328.49 165.654 1334.36 165.654C1340.23 165.654 1345.18 163.524 1349.21 159.265C1353.35 155.006 1355.43 149.193 1355.43 141.826Z" fill="#00008B"/>
</g>
<defs>
<filter id="filter0_d_1394_41879" x="0" y="-24" width="1428.28" height="319" filterUnits="userSpaceOnUse" color-interpolation-filters="sRGB">
<feFlood flood-opacity="0" result="BackgroundImageFix"/>
<feColorMatrix in="SourceAlpha" type="matrix" values="0 0 0 0 0 0 0 0 0 0 0 0 0 0 0 0 0 0 127 0" result="hardAlpha"/>
<feOffset dy="6"/>
<feGaussianBlur stdDeviation="15"/>
<feComposite in2="hardAlpha" operator="out"/>
<feColorMatrix type="matrix" values="0 0 0 0 0 0 0 0 0 0 0 0 0 0 0.545098 0 0 0 0.08 0"/>
<feBlend mode="normal" in2="BackgroundImageFix" result="effect1_dropShadow_1394_41879"/>
<feBlend mode="normal" in="SourceGraphic" in2="effect1_dropShadow_1394_41879" result="shape"/>
</filter>
<clipPath id="clip0_1394_41879">
<rect width="150" height="150" fill="white" transform="translate(30 54.5)"/>
</clipPath>
</defs>
</svg>
